<svg width="48" height="48" viewBox="0 0 48 48" fill="none" xmlns="http://www.w3.org/2000/svg">
<g opacity="0.4" filter="url(#filter0_d_2190_1338)">
<path d="M34 24C34 29.5228 29.5228 34 24 34C18.4772 34 14 29.5228 14 24C14 18.4772 18.4772 14 24 14C29.5228 14 34 18.4772 34 24Z" fill="#FEDF6F"/>
</g>
<path fill-rule="evenodd" clip-rule="evenodd" d="M24 15.5C19.3056 15.5 15.5 19.3056 15.5 24C15.5 28.6944 19.3056 32.5 24 32.5C28.6944 32.5 32.5 28.6944 32.5 24C32.5 19.3056 28.6944 15.5 24 15.5ZM12.5 24C12.5 17.6487 17.6487 12.5 24 12.5C30.3512 12.5 35.5 17.6487 35.5 24C35.5 30.3512 30.3512 35.5 24 35.5C17.6487 35.5 12.5 30.3512 12.5 24Z" fill="#FEDF6F"/>
<path fill-rule="evenodd" clip-rule="evenodd" d="M25.1242 3.00688C25.6726 3.62773 25.614 4.57566 24.9932 5.12416C24.7884 5.30502 24.5677 5.62565 24.5131 5.92182C24.4902 6.04589 24.4962 6.16114 24.5405 6.28383C24.5859 6.40926 24.6979 6.61506 24.9932 6.8759C25.614 7.4244 25.6726 8.37233 25.1241 8.99317C24.5756 9.614 23.6277 9.67264 23.0069 9.12414C21.732 7.99781 21.3294 6.64463 21.5627 5.37821C21.7723 4.24104 22.457 3.36167 23.0069 2.87588C23.6277 2.32739 24.5757 2.38604 25.1242 3.00688ZM10.0981 7.50288C10.9249 7.55404 11.5537 8.26581 11.5026 9.09266C11.4839 9.39488 11.5606 9.82144 11.7557 10.1047C11.8394 10.2262 11.9418 10.319 12.0824 10.3849C12.2257 10.4521 12.4787 10.524 12.9074 10.4975C13.7342 10.4463 14.446 11.0751 14.4972 11.902C14.5483 12.7288 13.9195 13.4406 13.0927 13.4917C11.3239 13.6012 10.0399 12.9023 9.28509 11.8065C8.60487 10.8189 8.46116 9.6692 8.5083 8.90738C8.55946 8.08053 9.27123 7.45172 10.0981 7.50288ZM36.1955 8.28456C37.1824 7.60479 38.3314 7.46119 39.0927 7.5083C39.9195 7.55947 40.5483 8.27124 40.4972 9.09808C40.446 9.92493 39.7342 10.5537 38.9074 10.5026C38.6057 10.4839 38.1799 10.5605 37.8973 10.7552C37.7761 10.8387 37.6836 10.9408 37.6179 11.081C37.5509 11.2238 37.4791 11.4764 37.5056 11.9044C37.5567 12.7312 36.9279 13.443 36.101 13.4941C35.2742 13.5452 34.5624 12.9164 34.5113 12.0896C34.402 10.3221 35.1004 9.0389 36.1955 8.28456ZM42.6218 21.5627C43.759 21.7723 44.6384 22.457 45.1242 23.0069C45.6727 23.6278 45.614 24.5757 44.9931 25.1242C44.3722 25.6727 43.4243 25.614 42.8758 24.9931C42.695 24.7884 42.3744 24.5677 42.0782 24.5131C41.9542 24.4902 41.8389 24.4962 41.7162 24.5405C41.5908 24.5859 41.385 24.6979 41.1241 24.9932C40.5756 25.614 39.6277 25.6726 39.0069 25.1241C38.386 24.5756 38.3274 23.6277 38.8759 23.0069C40.0022 21.732 41.3554 21.3294 42.6218 21.5627ZM3.00687 21.8759C3.6277 21.3274 4.57564 21.386 5.12414 22.0069C5.38498 22.3021 5.59078 22.4141 5.71621 22.4595C5.83889 22.5038 5.95414 22.5098 6.07821 22.4869C6.37438 22.4324 6.69501 22.2116 6.87588 22.0069C7.42437 21.386 8.37231 21.3274 8.99315 21.8759C9.614 22.4244 9.67265 23.3723 9.12416 23.9932C8.63836 24.543 7.75899 25.2278 6.62183 25.4373C5.3554 25.6706 4.00223 25.268 2.8759 23.9932C2.32739 23.3723 2.38603 22.4244 3.00687 21.8759ZM10.8989 33.5029C11.7257 33.4517 12.4375 34.0805 12.4887 34.9074C12.5358 35.6687 12.3922 36.8176 11.7124 37.8045C10.9581 38.8996 9.67488 39.5981 7.90741 39.4888C7.08056 39.4376 6.45173 38.7259 6.50288 37.899C6.55402 37.0722 7.26578 36.4433 8.09262 36.4945C8.52062 36.521 8.77319 36.4492 8.91603 36.3822C9.05623 36.3164 9.15832 36.2239 9.24179 36.1027C9.43645 35.8201 9.51307 35.3944 9.4944 35.0927C9.44323 34.2658 10.072 33.554 10.8989 33.5029ZM37.135 36.7485C36.8462 36.5604 36.4055 36.4841 36.0876 36.5027C35.2606 36.551 34.551 35.9199 34.5026 35.0928C34.4542 34.2658 35.0854 33.5562 35.9124 33.5078C36.6576 33.4642 37.7915 33.596 38.7722 34.2346C39.8683 34.9485 40.6022 36.193 40.4884 37.9315C40.4343 38.7582 39.7204 39.3845 38.8937 39.3304C38.067 39.2763 37.4407 38.5624 37.4948 37.7357C37.5197 37.3561 37.4522 37.1443 37.3965 37.0319C37.3408 36.9197 37.2583 36.8288 37.135 36.7485ZM22.8758 39.0069C23.4243 38.3861 24.3722 38.3274 24.9931 38.8758C25.543 39.3616 26.2278 40.241 26.4373 41.3782C26.6706 42.6446 26.268 43.9978 24.9932 45.1241C24.3723 45.6726 23.4244 45.614 22.8759 44.9932C22.3274 44.3723 22.386 43.4244 23.0069 42.8759C23.3021 42.6151 23.4141 42.4093 23.4595 42.2838C23.5038 42.1611 23.5098 42.0459 23.4869 41.9218C23.4324 41.6256 23.2116 41.305 23.0069 41.1242C22.3861 40.5757 22.3274 39.6278 22.8758 39.0069Z" fill="#FEDF6F"/>
<defs>
<filter id="filter0_d_2190_1338" x="10" y="14" width="28" height="28" filterUnits="userSpaceOnUse" color-interpolation-filters="sRGB">
<feFlood flood-opacity="0" result="BackgroundImageFix"/>
<feColorMatrix in="SourceAlpha" type="matrix" values="0 0 0 0 0 0 0 0 0 0 0 0 0 0 0 0 0 0 127 0" result="hardAlpha"/>
<feOffset dy="4"/>
<feGaussianBlur stdDeviation="2"/>
<feComposite in2="hardAlpha" operator="out"/>
<feColorMatrix type="matrix" values="0 0 0 0 0 0 0 0 0 0 0 0 0 0 0 0 0 0 0.25 0"/>
<feBlend mode="normal" in2="BackgroundImageFix" result="effect1_dropShadow_2190_1338"/>
<feBlend mode="normal" in="SourceGraphic" in2="effect1_dropShadow_2190_1338" result="shape"/>
</filter>
</defs>
</svg>
